<?xml version="1.0" encoding="UTF-8"?>
<!--Generator: Apple Native CoreSVG 326-->
<!DOCTYPE svg
PUBLIC "-//W3C//DTD SVG 1.1//EN"
       "http://www.w3.org/Graphics/SVG/1.1/DTD/svg11.dtd">
<svg version="1.1" xmlns="http://www.w3.org/2000/svg" xmlns:xlink="http://www.w3.org/1999/xlink" viewBox="0 0 231.062 144.438">
 <g>
  <rect height="144.438" opacity="0" width="231.062" x="0" y="0"/>
  <path d="M49.0625 56C49.0625 52.5 51.25 50.25 55 50.25L71.25 50.25L71.25 34.0625C71.25 30.4375 73.375 28.1875 76.9375 28.1875C80.375 28.1875 82.5 30.4375 82.5 34.0625L82.5 50.25L98.125 50.25C102.062 50.25 104.438 52.5 104.438 56C104.438 59.6875 102.062 61.9375 98.125 61.9375L82.5 61.9375L82.5 78.1875C82.5 81.8125 80.375 84.0625 76.9375 84.0625C73.375 84.0625 71.25 81.8125 71.25 78.1875L71.25 61.9375L55 61.9375C51.25 61.9375 49.0625 59.6875 49.0625 56ZM166.75 54.75C160.438 54.75 155.188 49.625 155.188 43.1875C155.188 36.75 160.438 31.625 166.75 31.625C173.188 31.625 178.375 36.75 178.375 43.1875C178.375 49.625 173.188 54.75 166.75 54.75ZM141.938 79.375C135.562 79.375 130.375 74.25 130.375 67.8125C130.375 61.4375 135.562 56.25 141.938 56.25C148.375 56.25 153.562 61.4375 153.562 67.8125C153.562 74.25 148.375 79.375 141.938 79.375ZM29.8125 144.438C40.1875 144.438 47.875 140.5 54.5 132.312L69.375 114.312C71.5 111.75 73.875 110.562 76.4375 110.562L154.625 110.562C157.188 110.562 159.562 111.75 161.688 114.312L176.5 132.312C183.188 140.5 190.875 144.438 201.25 144.438C219.125 144.438 231.062 132.5 231.062 114.188C231.062 106.312 229.188 97.1875 226.062 86.6875C221.125 70.1875 212.5 47.75 204.188 30.1875C197.375 15.9375 193.938 9.6875 177.375 5.9375C161.938 2.375 140.812 0.125 115.5 0.125C90.25 0.125 69.125 2.375 53.6875 5.9375C37.125 9.6875 33.6875 15.9375 26.875 30.1875C18.5625 47.75 9.9375 70.1875 5 86.6875C1.875 97.1875 0 106.312 0 114.188C0 132.5 11.9375 144.438 29.8125 144.438Z" fill="white" fill-opacity="0.85"/>
 </g>
</svg>
