<svg width="72" height="56" viewBox="0 0 72 56" fill="none" xmlns="http://www.w3.org/2000/svg">
<g clip-path="url(#clip0_23_5)">
<path d="M54 50V27.9807C54 26.8868 53.1133 26 52.0193 26H19.9807C18.8867 26 18 26.8868 18 27.9807V50H14V50.5C14 50.7761 14.1118 51.0261 14.293 51.2071C14.4739 51.3881 14.7239 51.5 15 51.5H17L17.2859 52H20.7141L21 51.5H51L51.2859 52H54.7141L55 51.5H57C57.5522 51.5 58 51.0522 58 50.5V50H54ZM52.5 50H19.5V27.9807C19.5 27.7157 19.7156 27.5 19.9807 27.5H33.75C34.5 27.5 34.4478 27.5 35 27.5H37.5C38.0522 27.5 37.5 27.5 38.25 27.5H52.0193C52.2844 27.5 52.5 27.7156 52.5 27.9807V50Z" fill="white"/>
</g>
<defs>
<clipPath id="clip0_23_5">
<rect width="72" height="56" fill="white"/>
</clipPath>
</defs>
</svg>
