<svg version="1.1" xmlns="http://www.w3.org/2000/svg" xmlns:xlink="http://www.w3.org/1999/xlink"
    viewBox="0 0 58.1406 36.1094">
    <style>
        path {
            fill: #000; /* black by default for light mode */
        }
        @media (prefers-color-scheme: dark) {
            path {
                fill: #fff; /* white for dark mode */
            }
        }
    </style>
    <g>
        <rect height="36.1094" opacity="0" width="58.1406" x="0" y="0" />
        <path
            d="M12.2656 14C12.2656 13.125 12.8125 12.5625 13.75 12.5625L17.8125 12.5625L17.8125 8.51562C17.8125 7.60938 18.3438 7.04688 19.2344 7.04688C20.0938 7.04688 20.625 7.60938 20.625 8.51562L20.625 12.5625L24.5312 12.5625C25.5156 12.5625 26.1094 13.125 26.1094 14C26.1094 14.9219 25.5156 15.4844 24.5312 15.4844L20.625 15.4844L20.625 19.5469C20.625 20.4531 20.0938 21.0156 19.2344 21.0156C18.3438 21.0156 17.8125 20.4531 17.8125 19.5469L17.8125 15.4844L13.75 15.4844C12.8125 15.4844 12.2656 14.9219 12.2656 14ZM41.6875 13.6875C40.1094 13.6875 38.7969 12.4062 38.7969 10.7969C38.7969 9.1875 40.1094 7.90625 41.6875 7.90625C43.2969 7.90625 44.5938 9.1875 44.5938 10.7969C44.5938 12.4062 43.2969 13.6875 41.6875 13.6875ZM35.4844 19.8438C33.8906 19.8438 32.5938 18.5625 32.5938 16.9531C32.5938 15.3594 33.8906 14.0625 35.4844 14.0625C37.0938 14.0625 38.3906 15.3594 38.3906 16.9531C38.3906 18.5625 37.0938 19.8438 35.4844 19.8438ZM7.45312 36.1094C10.0469 36.1094 11.9688 35.125 13.625 33.0781L17.3438 28.5781C17.875 27.9375 18.4688 27.6406 19.1094 27.6406L38.6562 27.6406C39.2969 27.6406 39.8906 27.9375 40.4219 28.5781L44.125 33.0781C45.7969 35.125 47.7188 36.1094 50.3125 36.1094C54.7812 36.1094 57.7656 33.125 57.7656 28.5469C57.7656 26.5781 57.2969 24.2969 56.5156 21.6719C55.2812 17.5469 53.125 11.9375 51.0469 7.54688C49.3438 3.98438 48.4844 2.42188 44.3438 1.48438C40.4844 0.59375 35.2031 0.03125 28.875 0.03125C22.5625 0.03125 17.2812 0.59375 13.4219 1.48438C9.28125 2.42188 8.42188 3.98438 6.71875 7.54688C4.64062 11.9375 2.48438 17.5469 1.25 21.6719C0.46875 24.2969 0 26.5781 0 28.5469C0 33.125 2.98438 36.1094 7.45312 36.1094Z"
            fill-opacity="0.85" />
    </g>
</svg>
